<svg id="Ebene_1" data-name="Ebene 1" xmlns="http://www.w3.org/2000/svg" viewBox="0 0 138.37 124.42"><defs><style>.cls-1{fill:#134485;}</style></defs><title>23-logo</title><path class="cls-1" d="M48.22,88.26H14.49l-.29-.8q3.36-2.87,7.32-6.4a93.82,93.82,0,0,0,7.42-7.4,47.64,47.64,0,0,0,5.78-7.9A15.4,15.4,0,0,0,37,58.06a13.28,13.28,0,0,0-.59-3.92,10.77,10.77,0,0,0-1.73-3.42,8.24,8.24,0,0,0-2.92-2.38,9.1,9.1,0,0,0-4.15-.89,13.48,13.48,0,0,0-8.56,2.73,24.48,24.48,0,0,0-5.88,6.6l-1-.59a45.3,45.3,0,0,1,3.06-4.71A34,34,0,0,1,20,46.25,29.31,29.31,0,0,1,26,42a14.53,14.53,0,0,1,6.93-1.73,11.66,11.66,0,0,1,8.25,3.08,10.94,10.94,0,0,1,3.32,8.44,18,18,0,0,1-1.83,7.94A36.2,36.2,0,0,1,38,67a68.12,68.12,0,0,1-6.23,6.6l-6.58,6.16v.2H43a17.83,17.83,0,0,0,4.2-.39,6.61,6.61,0,0,0,2.47-1.15,6,6,0,0,0,1.48-1.69c.36-.63.71-1.3,1-2l1,.3Z"/><path class="cls-1" d="M87.28,98.48a24.06,24.06,0,0,1-6.43,7.8,31.07,31.07,0,0,1-9.29,5,34.29,34.29,0,0,1-11.08,1.78,11.24,11.24,0,0,1-2.92-.4,10.31,10.31,0,0,1-2.77-1.13,5.57,5.57,0,0,1-1.93-1.89,5.21,5.21,0,0,1-.69-2.73,4.68,4.68,0,0,1,.74-2.69,3.06,3.06,0,0,1,2.72-1.09,4,4,0,0,1,2.87,1.13,32.7,32.7,0,0,1,2.37,2.5,17.52,17.52,0,0,0,2.68,2.49,5.65,5.65,0,0,0,3.55,1.13,14.74,14.74,0,0,0,3.12-.64,15.76,15.76,0,0,0,4.85-2.43,16.09,16.09,0,0,0,4.45-5,16.39,16.39,0,0,0,1.93-8.48A13.63,13.63,0,0,0,80,87.49a15.62,15.62,0,0,0-3.85-4.81,17.36,17.36,0,0,0-5.64-3.11,21,21,0,0,0-6.77-1.1H62.46l-.3-.59c1.71-1.32,3.54-2.74,5.49-4.26a43.38,43.38,0,0,0,5.34-5,26.92,26.92,0,0,0,4-5.75,14.45,14.45,0,0,0,1.58-6.74,7.8,7.8,0,0,0-3-6.45,11.57,11.57,0,0,0-7.37-2.37,16.68,16.68,0,0,0-7.12,1.35,12.27,12.27,0,0,0-5,4.71l-.89-.49a31.15,31.15,0,0,1,2.62-4.62,22.72,22.72,0,0,1,3.51-4,16.28,16.28,0,0,1,4.5-2.88,14.08,14.08,0,0,1,5.68-1.09,16.82,16.82,0,0,1,11,3.52A11.31,11.31,0,0,1,86.79,53a12.07,12.07,0,0,1-1,4.86A18.34,18.34,0,0,1,83,62.33a38.37,38.37,0,0,1-4.35,4.37Q76.1,68.89,73,71.27a26.74,26.74,0,0,1,6.28,2.19,21,21,0,0,1,5.34,3.73,17,17,0,0,1,3.66,5.11,14.23,14.23,0,0,1,1.34,6.05,21.65,21.65,0,0,1-2.37,10.13"/><path class="cls-1" d="M121.55,26.38a10.29,10.29,0,0,0-2.08-3.18,9.79,9.79,0,0,0-7.06-3,9.36,9.36,0,0,0-3.86.8,10.78,10.78,0,0,0-3.16,2.14,9.67,9.67,0,0,0-2.18,3.17,9.89,9.89,0,0,0-.79,3.93,10.2,10.2,0,0,0,.79,4,9.55,9.55,0,0,0,2.18,3.23,10.73,10.73,0,0,0,3.16,2.14,9.33,9.33,0,0,0,3.86.8,9.69,9.69,0,0,0,3.9-.8,9.52,9.52,0,0,0,3.16-2.19,10,10,0,0,0,2.08-3.22,10.38,10.38,0,0,0,.74-3.93,10,10,0,0,0-.74-3.88m3.71,9.29a14.83,14.83,0,0,1-3,4.48,13.44,13.44,0,0,1-4.45,3,13.9,13.9,0,0,1-5.54,1.09,13.55,13.55,0,0,1-5.49-1.09,13.37,13.37,0,0,1-4.35-3,14.61,14.61,0,0,1-2.92-4.42,13.77,13.77,0,0,1-1.09-5.51,14.16,14.16,0,0,1,1.09-5.56,13.44,13.44,0,0,1,3-4.42A14.35,14.35,0,0,1,107,17.35a14,14,0,0,1,15.33,3,14.12,14.12,0,0,1,4.06,9.93,13.63,13.63,0,0,1-1.09,5.41"/></svg>