<svg id="Ebene_1" data-name="Ebene 1" xmlns="http://www.w3.org/2000/svg" viewBox="0 0 141.52 160.4"><defs><style>.cls-1{fill:none;stroke:#efefef;stroke-miterlimit:10;stroke-dasharray:4 4;}.cls-2{fill:#134485;}.cls-3{fill:#efefef;}.cls-4{fill:#88cdd2;}.cls-5{fill:#2ea9e1;}</style></defs><title>23logo-full</title><line class="cls-1" x1="105.6" x2="37.39" y2="160.4"/><path class="cls-2" d="M131.79,116.28c.46-.76.91-1.53,1.34-2.3.22-.41.42-.81.63-1.22.34-.65.69-1.3,1-2,.21-.43.39-.86.59-1.3.29-.64.59-1.28.87-1.92.2-.47.37-.95.56-1.42s.5-1.22.72-1.84.32-1,.49-1.45.43-1.23.62-1.85.29-1,.44-1.56.35-1.18.49-1.76.27-1.16.4-1.74.26-1.08.37-1.62.22-1.23.33-1.85.19-1,.27-1.53.17-1.31.25-2c.06-.47.13-.94.18-1.42.07-.7.12-1.39.16-2.09,0-.43.08-.87.1-1.31,0-.72.05-1.44.07-2.17,0-.41,0-.82,0-1.23,0-.74,0-1.48,0-2.22,0-.4,0-.78,0-1.18,0-.75-.09-1.5-.15-2.24,0-.38,0-.77-.08-1.15-.07-.77-.17-1.54-.26-2.32,0-.35-.07-.7-.12-1-.11-.8-.25-1.6-.39-2.4-.06-.31-.1-.64-.16-.95-.15-.83-.34-1.65-.52-2.47-.06-.28-.11-.57-.18-.85-.2-.82-.42-1.64-.64-2.46-.08-.27-.14-.55-.22-.82-.24-.84-.51-1.67-.79-2.5-.08-.24-.15-.49-.23-.74-.28-.84-.6-1.66-.91-2.48-.09-.23-.17-.47-.26-.71-.33-.82-.68-1.64-1-2.45-.1-.23-.19-.46-.29-.69-.37-.81-.76-1.61-1.16-2.41-.11-.22-.21-.44-.32-.66-.42-.81-.86-1.61-1.3-2.4-.11-.2-.21-.41-.33-.61-.46-.8-.95-1.59-1.44-2.37-.12-.19-.22-.38-.34-.56-.5-.78-1-1.54-1.56-2.3l-.38-.56c-.54-.75-1.1-1.49-1.67-2.22l-.41-.55c-.58-.73-1.18-1.44-1.79-2.15-.15-.18-.29-.36-.45-.53-.61-.69-1.24-1.37-1.88-2l-.5-.54c-.65-.67-1.32-1.31-2-2l-.53-.52c-.67-.63-1.37-1.23-2.07-1.84l-.6-.53c-.7-.59-1.42-1.16-2.15-1.73l-.66-.52c-.72-.55-1.48-1.08-2.23-1.61L111,22a46.48,46.48,0,0,1,6.29,11.92A65.74,65.74,0,0,1,43.81,140.15,45.87,45.87,0,0,1,31,138.62l.46.3c.86.57,1.71,1.13,2.59,1.66l.5.29c.87.52,1.74,1,2.62,1.51l.5.25c.89.48,1.78.94,2.68,1.37l.54.24c.89.41,1.79.83,2.69,1.2l.56.22c.9.37,1.8.73,2.72,1.06l.61.2c.9.31,1.8.63,2.71.9.21.07.43.12.64.18.9.27,1.8.52,2.7.76l.72.16c.88.21,1.77.42,2.65.6l.77.14c.87.16,1.74.32,2.61.46l.85.1c.85.12,1.7.24,2.55.32l.91.07c.83.07,1.67.15,2.5.19.32,0,.63,0,.95,0,.82,0,1.64.07,2.46.07l1,0c.81,0,1.61,0,2.42,0l1.07-.07c.78,0,1.55-.09,2.32-.16l1.14-.13c.75-.08,1.5-.16,2.24-.26l1.16-.19c.73-.12,1.46-.22,2.19-.36.41-.07.81-.17,1.21-.25.7-.14,1.41-.28,2.11-.45l1.27-.33c.67-.17,1.35-.34,2-.53.43-.12.86-.27,1.29-.41.65-.2,1.31-.4,1.95-.61.45-.15.9-.33,1.35-.5.62-.22,1.24-.44,1.85-.68.45-.17.89-.37,1.34-.56.6-.25,1.21-.49,1.8-.76.44-.2.88-.42,1.32-.63s1.18-.55,1.76-.85.87-.48,1.31-.71,1.14-.6,1.71-.92.9-.55,1.35-.81,1.07-.63,1.59-1,.88-.6,1.32-.89,1-.68,1.54-1,.83-.62,1.25-.93,1-.75,1.53-1.15.83-.69,1.24-1,1-.78,1.45-1.2.83-.77,1.25-1.15.9-.81,1.33-1.23.83-.84,1.24-1.26.83-.83,1.24-1.26.78-.87,1.16-1.31.81-.9,1.21-1.35,1-1.21,1.46-1.82c.26-.33.54-.65.79-1q1.1-1.44,2.13-3c.69-1,1.35-2,2-3.05.17-.27.31-.53.47-.81"/><path class="cls-3" d="M43.81,140.15A65.71,65.71,0,1,1,117.25,33.9,46.37,46.37,0,0,0,111,22l-.09-.07a70.73,70.73,0,1,0-80,116.66l.1.06a46.15,46.15,0,0,0,12.85,1.52"/><path class="cls-2" d="M83,54.58A28.31,28.31,0,0,0,43.34,74.67,28.27,28.27,0,0,0,60.88,106.6l1.23-3.16A25,25,0,0,1,49.32,92.3a24.82,24.82,0,0,1,8-32.76,25,25,0,0,1,18.74-3.68,25.4,25.4,0,0,1,5.51,1.82Z"/><path class="cls-2" d="M81.58,57.67a25,25,0,0,1,11,9.89l2.93-1.74A28.34,28.34,0,0,0,83,54.58Z"/><path class="cls-4" d="M92,33.18A51.57,51.57,0,0,1,118.73,60.3L121.87,59A55,55,0,0,0,93.39,30.07Z"/><path class="cls-4" d="M93.39,30.07A55.59,55.59,0,0,0,82,26.46,54.87,54.87,0,0,0,50.44,131.09l1.28-3.15A51.49,51.49,0,1,1,92,33.18Z"/><path class="cls-5" d="M86.81,45.41a38.27,38.27,0,0,1,18.28,17.18,37.87,37.87,0,0,1,3.6,25.2l3.34.67A41.56,41.56,0,0,0,88.19,42.32Z"/><path class="cls-5" d="M88.19,42.32A41.71,41.71,0,0,0,30.28,72.06a41.57,41.57,0,0,0,25.38,46.8l1.26-3.15A38.19,38.19,0,1,1,86.8,45.42Z"/></svg>